<svg xmlns="http://www.w3.org/2000/svg" width="11" height="15" viewBox="0 0 11 15">
    <g fill="#4A4A4A" fill-rule="evenodd">
        <path d="M3.102 0S-.04.043 0 3.011c.041 2.97.613 5.594 1.552 7.057.938 1.462 3.346 5.292 6.081 4.905 0 0 1.347-.302 2.367-.99l-3.306-2.71s-.98.646-1.591-.216c-.613-.86-2.53-4.861-2.53-4.861s-.531-1.291.652-1.85L3.102 0z"/>
        <path d="M4 .013s.207-.08.586.16c.38.241.38.442.38.442L5 3.385s-.103.16-.241.321c-.138.16-.586.402-.656.241C4.035 3.787 4 .013 4 .013zM7 10.456l.983-.453s.22-.039.574.156c.353.195 2.207 1.48 2.207 1.48s.309.233.22.505c-.088.272-.309.856-.309.856L7 10.456z"/>
    </g>
</svg>
