<svg xmlns="http://www.w3.org/2000/svg" width="28" height="20" viewBox="0 0 28 20">
    <g fill="#112369" fill-rule="evenodd">
        <path d="M26.25 8.333H1.75C.783 8.333 0 9.08 0 10c0 .92.783 1.667 1.75 1.667h24.5c.967 0 1.75-.746 1.75-1.667 0-.92-.783-1.667-1.75-1.667zM26.25 16.667H1.75c-.967 0-1.75.746-1.75 1.666C0 19.254.783 20 1.75 20h24.5c.967 0 1.75-.746 1.75-1.667 0-.92-.783-1.666-1.75-1.666zM1.75 3.333h24.5c.967 0 1.75-.746 1.75-1.666C28 .746 27.217 0 26.25 0H1.75C.783 0 0 .747 0 1.667s.783 1.666 1.75 1.666z"/>
    </g>
</svg>
