<svg width="19" height="19" viewBox="0 0 19 19" fill="none" xmlns="http://www.w3.org/2000/svg">
<circle cx="9.5" cy="9.5" r="9.25" stroke="#54B846" stroke-width="0.5"/>
<path d="M9.39081 12.4518C10.3281 12.5741 12.305 12.8188 12.714 12.8188C13.1031 12.8188 13.6402 12.1103 13.3114 11.7177M13.3114 11.7177C13.2082 11.5943 13.0195 11.5022 12.714 11.4729C11.8001 11.3855 9.77519 10.9226 8.36828 10.7107M13.3114 11.7177C13.4965 11.5804 13.791 11.3595 14.1234 11.1059M8.36828 10.7107C7.8076 10.6262 7.34507 10.5816 7.09012 10.6165C6.19541 10.7388 5.42851 11.5953 3 13.5529L5.04506 16C5.47111 15.6329 6.39991 14.8744 6.70667 14.7765C7.09012 14.6541 10.669 15.3882 11.1802 15.2659C11.6915 15.1435 15.7816 11.9623 16.6763 11.1059C17.571 10.2494 16.4207 9.27058 15.526 10.0047C15.1113 10.345 14.5814 10.7565 14.1234 11.1059M8.36828 10.7107C8.69305 10.2622 9.43041 9.60494 10.2855 9.53006M14.1234 11.1059C13.6156 9.75998 12.3306 9.76 11.8193 10.1271C11.3064 9.63611 10.7766 9.48706 10.2855 9.53006M10.2855 9.53006C10.2855 8.41412 10.2702 7.71294 8.35294 6" stroke="#54B846" stroke-width="0.5"/>
<path d="M10 8C10.6667 7.58333 11.5 6.08333 13 6" stroke="#54B846" stroke-width="0.5"/>
<path d="M8.82379 6.96079C9.42062 6.05819 8.50672 4.71502 6 5.0535C6.3581 5.50479 6.93327 7.3818 8.84315 6.9305" stroke="#54B846" stroke-width="0.5"/>
<path d="M11 6.5795C11 5.64681 12.2 4.24775 14 5.49134C12.95 5.95768 12.95 7.8231 11 6.5795Z" stroke="#54B846" stroke-width="0.5"/>
</svg>
