<svg width="19" height="19" viewBox="0 0 19 19" fill="none" xmlns="http://www.w3.org/2000/svg">
<circle cx="9.5" cy="9.5" r="9.25" stroke="#54B846" stroke-width="0.5"/>
<path d="M3 16L16 3" stroke="#54B846" stroke-width="0.5"/>
<path d="M9.5 16V7" stroke="#54B846" stroke-width="0.5"/>
<path d="M9.49997 9.07056C9.65625 7.80292 10.2812 6.69373 12 6.85219C12 8.75365 10.4374 9.22901 9.49997 9.07056ZM9.49997 9.07056C8.40625 9.07056 7 8.59519 7 6.69373C8.5625 6.69373 9.49994 7.32755 9.49997 9.07056ZM9.49997 11.6058C9.65625 10.3382 10.4375 9.07056 12 9.07056C12 10.1797 11.6874 11.6058 9.49997 11.6058ZM9.49997 11.6058C9.49997 9.54592 8.09375 9.07056 7 9.07056C7 10.8136 8.09369 11.6058 9.49997 11.6058ZM9.49997 13.9827C9.5 12.2397 10.75 11.6058 12 11.6058C12 12.8735 11.5312 13.9827 9.49997 13.9827ZM9.49997 13.9827C9.49997 12.2397 8.40625 11.6058 7 11.6058C7 13.7608 8.66665 14.0883 9.49997 13.9827ZM9.49997 7.1691C10.5937 6.21837 10.5937 4.95073 9.49997 4C8.71872 4.79227 8.24997 6.05991 9.49997 7.1691Z" stroke="#54B846" stroke-width="0.5"/>
</svg>
